<?xml version="1.0" encoding="UTF-8" standalone="no"?>
<!-- Created with Inkscape (http://www.inkscape.org/) -->

<svg
   xmlns:dc="http://purl.org/dc/elements/1.1/"
   xmlns:cc="http://creativecommons.org/ns#"
   xmlns:rdf="http://www.w3.org/1999/02/22-rdf-syntax-ns#"
   xmlns:svg="http://www.w3.org/2000/svg"
   xmlns="http://www.w3.org/2000/svg"
   xmlns:xlink="http://www.w3.org/1999/xlink"
   version="1.1"
   width="400"
   height="400"
   id="svg2">
  <defs
     id="defs4">
    <linearGradient
       id="linearGradient4077">
      <stop
         id="stop4079"
         style="stop-color:#ffffff;stop-opacity:1"
         offset="0" />
      <stop
         id="stop4081"
         style="stop-color:#ffffff;stop-opacity:0"
         offset="1" />
    </linearGradient>
    <radialGradient
       cx="327.14285"
       cy="408.07648"
       r="189.77856"
       fx="327.14285"
       fy="408.07648"
       id="radialGradient4085"
       xlink:href="#linearGradient4077"
       gradientUnits="userSpaceOnUse" />
    <radialGradient
       cx="327.14285"
       cy="408.07648"
       r="189.77856"
       fx="327.14285"
       fy="408.07648"
       id="radialGradient3003"
       xlink:href="#linearGradient4077"
       gradientUnits="userSpaceOnUse"
       gradientTransform="matrix(0.52664996,0,0,-0.52664996,27.279487,414.69512)" />
  </defs>
  <metadata
     id="metadata7">
    <rdf:RDF>
      <cc:Work
         rdf:about="">
        <dc:format>image/svg+xml</dc:format>
        <dc:type
           rdf:resource="http://purl.org/dc/dcmitype/StillImage" />
        <dc:title></dc:title>
      </cc:Work>
    </rdf:RDF>
  </metadata>
  <path
     d="m 304.92506,200.10625 a 106.97832,106.97832 0 0 1 -213.956641,0 106.97832,106.97832 0 1 1 213.956641,0 z"
     id="path2985-58"
     style="opacity:0;fill:#ffffff;fill-opacity:0;fill-rule:evenodd;stroke:#000000;stroke-width:30.42561913;stroke-linecap:butt;stroke-linejoin:miter;stroke-miterlimit:4;stroke-opacity:1;stroke-dasharray:none" />
  <path
     d="m 374.02866,200.5678 a 174.59464,174.59464 0 0 1 -349.189288,0 174.59464,174.59464 0 1 1 349.189288,0 z"
     id="path2985"
     style="fill:none;stroke:none" />
  <path
     d="m 295.11861,199.78166 a 95.549352,95.549352 0 1 0 -191.0987,0 95.549352,95.549352 0 0 0 191.0987,0 z"
     id="path2985-5"
     style="opacity:0;fill:url(#radialGradient3003);fill-opacity:1;fill-rule:evenodd;stroke:#000000;stroke-width:8.79505444;stroke-linecap:butt;stroke-linejoin:miter;stroke-miterlimit:4;stroke-opacity:1;stroke-dasharray:none" />
  <g
     transform="translate(0,-652.36218)"
     id="g3881">
    <path
       d="m 508.57143,408.07648 a 181.42857,181.42857 0 1 1 -362.85715,0 181.42857,181.42857 0 1 1 362.85715,0 z"
       transform="matrix(1.05159,0,0,1.05159,-143.61262,424.77432)"
       id="path3883"
       style="opacity:0;fill:#ffffff;fill-opacity:1;fill-rule:evenodd;stroke:#000000;stroke-width:16.70000076;stroke-linecap:butt;stroke-linejoin:miter;stroke-miterlimit:4;stroke-opacity:1;stroke-dasharray:none" />
  </g>
  <path
     d="M 152.28816,342.04829 C 97.973421,323.80433 59.825969,277.66841 51.505178,220.16033 49.677307,207.52724 50.24649,185.1981 52.708943,172.93651 61.826248,127.53759 89.481776,90.146545 129.83302,68.662602 c 35.8626,-19.094087 77.82334,-22.57176 116.5661,-9.660907 44.74635,14.911525 79.54019,49.627375 94.41985,94.208205 9.14506,27.39943 10.33668,54.4324 3.63332,82.42502 -11.64102,48.61185 -48.39602,89.23772 -95.67222,105.748 -11.1651,3.8992 -10.8326,3.8972 -11.34618,0.0682 -1.07899,-8.0444 -9.1421,-19.5659 -16.89185,-24.13699 -8.76031,-5.16717 -21.6833,-6.82725 -30.45829,-3.91267 -13.059,4.3375 -22.96601,15.05784 -25.62339,27.72694 -0.51073,2.43494 -1.12273,4.42256 -1.36,4.41695 -0.23728,-0.006 -5.10276,-1.5793 -10.8122,-3.49706 l 0,2e-5 z M 301.95467,237.9406 c 6.55623,-3.12102 11.48606,-8.05077 14.6075,-14.60727 2.26208,-4.75143 2.45599,-5.81668 2.45599,-13.49206 0,-7.3864 -0.24242,-8.85061 -2.13346,-12.88555 -5.73585,-12.23866 -19.8178,-19.58994 -33.0965,-17.27755 -27.4731,4.78423 -35.39495,40.65158 -12.35607,55.94392 6.19913,4.11474 9.88881,5.1132 18.22095,4.93071 6.15564,-0.13481 7.85585,-0.49585 12.30159,-2.6122 z m -185.26043,-1.63113 c 18.27642,-6.11941 26.7345,-26.56591 18.07604,-43.69687 -10.40951,-20.59547 -40.206037,-22.3129 -52.989217,-3.05423 -4.107016,6.18749 -5.475292,11.34311 -5.06661,19.09083 0.688371,13.05003 9.109462,23.94644 21.49898,27.81846 4.736887,1.48039 13.819177,1.40264 18.480807,-0.15819 l 0,0 z m 157.08583,-67.22959 c 15.57765,-4.16116 25.20724,-18.94566 22.65642,-34.78484 -4.83544,-30.0253 -45.69175,-35.547642 -58.64022,-7.92611 -1.86611,3.98077 -2.11144,5.47232 -2.11144,12.83742 0,7.34536 0.24795,8.86213 2.09141,12.79366 6.44323,13.74149 21.59428,20.929 36.00383,17.07987 z m -129.58883,-3.03769 c 5.62476,-2.62965 11.60707,-8.12983 14.27686,-13.12626 12.42209,-23.24748 -7.60865,-50.53802 -33.15778,-45.17525 -23.66844,4.968 -32.820477,32.75606 -16.78729,50.97072 3.35204,3.80811 6.81117,6.15544 12.33106,8.3677 5.75133,2.30503 17.28493,1.79257 23.33715,-1.03691 l 0,0 z m 69.03384,-28.96227 c 19.41206,-9.18206 23.92414,-34.60885 8.82149,-49.711499 -13.69434,-13.694345 -37.29257,-11.422956 -47.46158,4.568296 -4.05929,6.383416 -5.41349,11.507263 -5.01885,18.989543 0.40969,7.76737 2.83203,13.68745 7.81049,19.08845 6.60491,7.16548 13.61261,10.04254 23.78439,9.76485 5.69912,-0.15559 7.57133,-0.57455 12.06406,-2.69964 z"
     id="path3785"
     style="fill:#777777;fill-opacity:1;stroke:#ffffff;stroke-opacity:1" />
</svg>
